# xmcd CD database file
#
# Track frame offsets:
#	150
#	23922
#	46477
#
# Disc length: 901 seconds
#
# Revision: 0
# Processed by: cddbd v1.5.1PL2 Copyright (c) Steve Scherf et al.
# Submitted via: CDex 1.51
#
DISCID=1e038303
DTITLE=THE BACK HORN - 初めての呼吸で
DYEAR=2006
DGENRE=Rock
TTITLE0=初めての呼吸で
TTITLE1=ハッピーエンドに憧れて
TTITLE2=番茶に梅干し
EXTD=YEAR: 2006
EXTT0=
EXTT1=
EXTT2=
PLAYORDER=
